<svg width="200" height="32" viewBox="0 0 200 32" fill="none" xmlns="http://www.w3.org/2000/svg">
<path d="M16 1.05743L31 6.21368V16H1V6.21368L16 1.05743Z" stroke="#ff4d01" stroke-width="2"/>
<path d="M47.754 26.176C46.61 26.176 45.6053 25.956 44.74 25.516C43.8747 25.0613 43.2073 24.4307 42.738 23.624C42.2687 22.8173 42.034 21.886 42.034 20.83V15.748C42.034 14.692 42.2687 13.7607 42.738 12.954C43.2073 12.1473 43.8747 11.524 44.74 11.084C45.6053 10.644 46.61 10.424 47.754 10.424C48.8833 10.424 49.8733 10.6367 50.724 11.062C51.5893 11.4727 52.2567 12.0667 52.726 12.844C53.21 13.6067 53.452 14.494 53.452 15.506C53.452 15.638 53.364 15.7187 53.188 15.748L50.614 15.902H50.57C50.4233 15.902 50.35 15.8213 50.35 15.66C50.35 14.8827 50.108 14.2593 49.624 13.79C49.1547 13.3207 48.5313 13.086 47.754 13.086C46.962 13.086 46.324 13.3207 45.84 13.79C45.3707 14.2593 45.136 14.8827 45.136 15.66V20.962C45.136 21.7247 45.3707 22.3407 45.84 22.81C46.324 23.2793 46.962 23.514 47.754 23.514C48.5313 23.514 49.1547 23.2793 49.624 22.81C50.108 22.3407 50.35 21.7247 50.35 20.962C50.35 20.8007 50.438 20.72 50.614 20.72L53.188 20.83C53.2613 20.83 53.32 20.852 53.364 20.896C53.4227 20.94 53.452 20.9913 53.452 21.05C53.452 22.062 53.21 22.9567 52.726 23.734C52.2567 24.5113 51.5893 25.1127 50.724 25.538C49.8733 25.9633 48.8833 26.176 47.754 26.176ZM61.6448 26.242C60.5008 26.242 59.4888 26.0073 58.6088 25.538C57.7434 25.0687 57.0688 24.416 56.5848 23.58C56.1008 22.7293 55.8588 21.754 55.8588 20.654V15.946C55.8588 14.8607 56.1008 13.9 56.5848 13.064C57.0688 12.228 57.7434 11.5827 58.6088 11.128C59.4888 10.6587 60.5008 10.424 61.6448 10.424C62.8034 10.424 63.8154 10.6587 64.6808 11.128C65.5608 11.5827 66.2428 12.228 66.7268 13.064C67.2108 13.9 67.4528 14.8607 67.4528 15.946V20.654C67.4528 21.754 67.2108 22.7293 66.7268 23.58C66.2428 24.4307 65.5608 25.0907 64.6808 25.56C63.8154 26.0147 62.8034 26.242 61.6448 26.242ZM61.6448 23.58C62.4514 23.58 63.1041 23.3233 63.6028 22.81C64.1014 22.2967 64.3508 21.6147 64.3508 20.764V15.924C64.3508 15.0733 64.1014 14.3913 63.6028 13.878C63.1188 13.35 62.4661 13.086 61.6448 13.086C60.8381 13.086 60.1854 13.35 59.6868 13.878C59.2028 14.3913 58.9608 15.0733 58.9608 15.924V20.764C58.9608 21.6147 59.2028 22.2967 59.6868 22.81C60.1854 23.3233 60.8381 23.58 61.6448 23.58ZM79.1148 10.864C79.1148 10.7907 79.1368 10.732 79.1808 10.688C79.2395 10.6293 79.3055 10.6 79.3788 10.6H81.9528C82.0262 10.6 82.0848 10.6293 82.1288 10.688C82.1875 10.732 82.2168 10.7907 82.2168 10.864V25.736C82.2168 25.8093 82.1875 25.8753 82.1288 25.934C82.0848 25.978 82.0262 26 81.9528 26H79.4668C79.3202 26 79.2175 25.9413 79.1588 25.824L73.4608 16.408C73.4315 16.364 73.4022 16.3493 73.3728 16.364C73.3435 16.364 73.3288 16.3933 73.3288 16.452L73.3728 25.736C73.3728 25.8093 73.3435 25.8753 73.2848 25.934C73.2408 25.978 73.1822 26 73.1088 26H70.5348C70.4615 26 70.3955 25.978 70.3368 25.934C70.2928 25.8753 70.2708 25.8093 70.2708 25.736V10.864C70.2708 10.7907 70.2928 10.732 70.3368 10.688C70.3955 10.6293 70.4615 10.6 70.5348 10.6H73.0208C73.1675 10.6 73.2702 10.6587 73.3288 10.776L79.0048 20.148C79.0342 20.192 79.0635 20.214 79.0928 20.214C79.1222 20.1993 79.1368 20.1627 79.1368 20.104L79.1148 10.864ZM95.9677 10.6C96.041 10.6 96.0997 10.6293 96.1437 10.688C96.2024 10.732 96.2317 10.7907 96.2317 10.864V13.02C96.2317 13.0933 96.2024 13.1593 96.1437 13.218C96.0997 13.262 96.041 13.284 95.9677 13.284H92.0297C91.9564 13.284 91.9197 13.3207 91.9197 13.394V25.736C91.9197 25.8093 91.8904 25.8753 91.8317 25.934C91.7877 25.978 91.729 26 91.6557 26H89.0817C89.0084 26 88.9424 25.978 88.8837 25.934C88.8397 25.8753 88.8177 25.8093 88.8177 25.736V13.394C88.8177 13.3207 88.781 13.284 88.7077 13.284H84.8797C84.8064 13.284 84.7404 13.262 84.6817 13.218C84.6377 13.1593 84.6157 13.0933 84.6157 13.02V10.864C84.6157 10.7907 84.6377 10.732 84.6817 10.688C84.7404 10.6293 84.8064 10.6 84.8797 10.6H95.9677ZM107.099 26C106.952 26 106.849 25.934 106.791 25.802L104.041 19.708C104.011 19.6493 103.967 19.62 103.909 19.62H101.863C101.789 19.62 101.753 19.6567 101.753 19.73V25.736C101.753 25.8093 101.723 25.8753 101.665 25.934C101.621 25.978 101.562 26 101.489 26H98.9148C98.8415 26 98.7755 25.978 98.7168 25.934C98.6728 25.8753 98.6508 25.8093 98.6508 25.736V10.864C98.6508 10.7907 98.6728 10.732 98.7168 10.688C98.7755 10.6293 98.8415 10.6 98.9148 10.6H105.207C106.145 10.6 106.967 10.7907 107.671 11.172C108.389 11.5533 108.939 12.096 109.321 12.8C109.717 13.504 109.915 14.318 109.915 15.242C109.915 16.2393 109.665 17.0973 109.167 17.816C108.668 18.52 107.971 19.0187 107.077 19.312C107.003 19.3413 106.981 19.3927 107.011 19.466L110.003 25.692C110.032 25.7507 110.047 25.7947 110.047 25.824C110.047 25.9413 109.966 26 109.805 26H107.099ZM101.863 13.262C101.789 13.262 101.753 13.2987 101.753 13.372V17.134C101.753 17.2073 101.789 17.244 101.863 17.244H104.745C105.361 17.244 105.859 17.0607 106.241 16.694C106.637 16.3273 106.835 15.8507 106.835 15.264C106.835 14.6773 106.637 14.2007 106.241 13.834C105.859 13.4527 105.361 13.262 104.745 13.262H101.863ZM122.717 26C122.57 26 122.475 25.9267 122.431 25.78L121.771 23.624C121.741 23.5653 121.705 23.536 121.661 23.536H116.249C116.205 23.536 116.168 23.5653 116.139 23.624L115.501 25.78C115.457 25.9267 115.361 26 115.215 26H112.421C112.333 26 112.267 25.978 112.223 25.934C112.179 25.8753 112.171 25.7947 112.201 25.692L116.953 10.82C116.997 10.6733 117.092 10.6 117.239 10.6H120.693C120.839 10.6 120.935 10.6733 120.979 10.82L125.731 25.692C125.745 25.7213 125.753 25.758 125.753 25.802C125.753 25.934 125.672 26 125.511 26H122.717ZM116.931 21.006C116.916 21.094 116.945 21.138 117.019 21.138H120.891C120.979 21.138 121.008 21.094 120.979 21.006L118.999 14.472C118.984 14.4133 118.962 14.3913 118.933 14.406C118.903 14.406 118.881 14.428 118.867 14.472L116.931 21.006ZM133.066 26.176C131.922 26.176 130.917 25.956 130.052 25.516C129.187 25.0613 128.519 24.4307 128.05 23.624C127.581 22.8173 127.346 21.886 127.346 20.83V15.748C127.346 14.692 127.581 13.7607 128.05 12.954C128.519 12.1473 129.187 11.524 130.052 11.084C130.917 10.644 131.922 10.424 133.066 10.424C134.195 10.424 135.185 10.6367 136.036 11.062C136.901 11.4727 137.569 12.0667 138.038 12.844C138.522 13.6067 138.764 14.494 138.764 15.506C138.764 15.638 138.676 15.7187 138.5 15.748L135.926 15.902H135.882C135.735 15.902 135.662 15.8213 135.662 15.66C135.662 14.8827 135.42 14.2593 134.936 13.79C134.467 13.3207 133.843 13.086 133.066 13.086C132.274 13.086 131.636 13.3207 131.152 13.79C130.683 14.2593 130.448 14.8827 130.448 15.66V20.962C130.448 21.7247 130.683 22.3407 131.152 22.81C131.636 23.2793 132.274 23.514 133.066 23.514C133.843 23.514 134.467 23.2793 134.936 22.81C135.42 22.3407 135.662 21.7247 135.662 20.962C135.662 20.8007 135.75 20.72 135.926 20.72L138.5 20.83C138.573 20.83 138.632 20.852 138.676 20.896C138.735 20.94 138.764 20.9913 138.764 21.05C138.764 22.062 138.522 22.9567 138.038 23.734C137.569 24.5113 136.901 25.1127 136.036 25.538C135.185 25.9633 134.195 26.176 133.066 26.176ZM151.933 10.6C152.006 10.6 152.065 10.6293 152.109 10.688C152.167 10.732 152.197 10.7907 152.197 10.864V13.02C152.197 13.0933 152.167 13.1593 152.109 13.218C152.065 13.262 152.006 13.284 151.933 13.284H147.995C147.921 13.284 147.885 13.3207 147.885 13.394V25.736C147.885 25.8093 147.855 25.8753 147.797 25.934C147.753 25.978 147.694 26 147.621 26H145.047C144.973 26 144.907 25.978 144.849 25.934C144.805 25.8753 144.783 25.8093 144.783 25.736V13.394C144.783 13.3207 144.746 13.284 144.673 13.284H140.845C140.771 13.284 140.705 13.262 140.647 13.218C140.603 13.1593 140.581 13.0933 140.581 13.02V10.864C140.581 10.7907 140.603 10.732 140.647 10.688C140.705 10.6293 140.771 10.6 140.845 10.6H151.933ZM159.471 26.242C158.327 26.242 157.315 26.0073 156.435 25.538C155.57 25.0687 154.895 24.416 154.411 23.58C153.927 22.7293 153.685 21.754 153.685 20.654V15.946C153.685 14.8607 153.927 13.9 154.411 13.064C154.895 12.228 155.57 11.5827 156.435 11.128C157.315 10.6587 158.327 10.424 159.471 10.424C160.63 10.424 161.642 10.6587 162.507 11.128C163.387 11.5827 164.069 12.228 164.553 13.064C165.037 13.9 165.279 14.8607 165.279 15.946V20.654C165.279 21.754 165.037 22.7293 164.553 23.58C164.069 24.4307 163.387 25.0907 162.507 25.56C161.642 26.0147 160.63 26.242 159.471 26.242ZM159.471 23.58C160.278 23.58 160.93 23.3233 161.429 22.81C161.928 22.2967 162.177 21.6147 162.177 20.764V15.924C162.177 15.0733 161.928 14.3913 161.429 13.878C160.945 13.35 160.292 13.086 159.471 13.086C158.664 13.086 158.012 13.35 157.513 13.878C157.029 14.3913 156.787 15.0733 156.787 15.924V20.764C156.787 21.6147 157.029 22.2967 157.513 22.81C158.012 23.3233 158.664 23.58 159.471 23.58ZM176.545 26C176.398 26 176.296 25.934 176.237 25.802L173.487 19.708C173.458 19.6493 173.414 19.62 173.355 19.62H171.309C171.236 19.62 171.199 19.6567 171.199 19.73V25.736C171.199 25.8093 171.17 25.8753 171.111 25.934C171.067 25.978 171.008 26 170.935 26H168.361C168.288 26 168.222 25.978 168.163 25.934C168.119 25.8753 168.097 25.8093 168.097 25.736V10.864C168.097 10.7907 168.119 10.732 168.163 10.688C168.222 10.6293 168.288 10.6 168.361 10.6H174.653C175.592 10.6 176.413 10.7907 177.117 11.172C177.836 11.5533 178.386 12.096 178.767 12.8C179.163 13.504 179.361 14.318 179.361 15.242C179.361 16.2393 179.112 17.0973 178.613 17.816C178.114 18.52 177.418 19.0187 176.523 19.312C176.45 19.3413 176.428 19.3927 176.457 19.466L179.449 25.692C179.478 25.7507 179.493 25.7947 179.493 25.824C179.493 25.9413 179.412 26 179.251 26H176.545ZM171.309 13.262C171.236 13.262 171.199 13.2987 171.199 13.372V17.134C171.199 17.2073 171.236 17.244 171.309 17.244H174.191C174.807 17.244 175.306 17.0607 175.687 16.694C176.083 16.3273 176.281 15.8507 176.281 15.264C176.281 14.6773 176.083 14.2007 175.687 13.834C175.306 13.4527 174.807 13.262 174.191 13.262H171.309ZM186.455 26C186.352 26 186.279 25.9707 186.235 25.912C186.191 25.8533 186.198 25.78 186.257 25.692L190.525 18.366C190.554 18.322 190.554 18.278 190.525 18.234L186.257 10.908L186.213 10.776C186.213 10.6587 186.294 10.6 186.455 10.6H189.249C189.396 10.6 189.506 10.6587 189.579 10.776L192.439 15.814C192.483 15.902 192.527 15.902 192.571 15.814L195.431 10.776C195.504 10.6587 195.614 10.6 195.761 10.6H198.533C198.636 10.6 198.709 10.6293 198.753 10.688C198.797 10.7467 198.79 10.82 198.731 10.908L194.463 18.234C194.448 18.278 194.448 18.322 194.463 18.366L198.731 25.692L198.775 25.824C198.775 25.9413 198.694 26 198.533 26H195.761C195.614 26 195.504 25.9413 195.431 25.824L192.571 20.808C192.527 20.72 192.483 20.72 192.439 20.808L189.557 25.824C189.484 25.9413 189.374 26 189.227 26H186.455Z" fill="#ffffff"/>
<line x1="1" y1="17" x2="1" y2="32" stroke="#ff4d01" stroke-width="2"/>
<line x1="31" y1="17" x2="31" y2="32" stroke="#ff4d01" stroke-width="2"/>
<line x1="16" y1="17" x2="16" y2="32" stroke="#ff4d01" stroke-width="2"/>
<line x1="1" y1="31" x2="31" y2="31" stroke="#ff4d01" stroke-width="2"/>
</svg>
